<svg xmlns="http://www.w3.org/2000/svg" width="324.002" height="190.008" viewBox="0 0 324.002 190.008">
  <g id="Sales_Rates" transform="translate(-133.998 -670.995)">
    <text id="New_Sales" data-name="New Sales" transform="translate(359 717)" fill="#63799b" font-size="16" font-family="NunitoSans-Regular, Nunito Sans"><tspan x="0" y="16">New Sales</tspan></text>
    <text id="Existing" transform="translate(359 751)" fill="#63799b" font-size="16" font-family="NunitoSans-Regular, Nunito Sans"><tspan x="0" y="16">Existing</tspan></text>
    <text id="Total_Sales" data-name="Total Sales" transform="translate(359 785)" fill="#63799b" font-size="16" font-family="NunitoSans-Regular, Nunito Sans"><tspan x="0" y="16">Total Sales</tspan></text>
    <g id="Ellipse_1402" data-name="Ellipse 1402" transform="translate(134 671)" fill="#fff" stroke="#c7e4ff" stroke-linecap="round" stroke-linejoin="bevel" stroke-width="8">
      <circle cx="95" cy="95" r="95" stroke="none"/>
      <circle cx="95" cy="95" r="91" fill="none"/>
    </g>
    <circle id="Ellipse_1409" data-name="Ellipse 1409" cx="6" cy="6" r="6" transform="translate(340 722)" fill="#2c77ff"/>
    <circle id="Ellipse_1410" data-name="Ellipse 1410" cx="6" cy="6" r="6" transform="translate(340 756)" fill="#003696"/>
    <circle id="Ellipse_1411" data-name="Ellipse 1411" cx="6" cy="6" r="6" transform="translate(340 790)" fill="#c7e4ff"/>
    <g id="Group_2198" data-name="Group 2198">
      <path id="Subtraction_41" data-name="Subtraction 41" d="M-18405-3172a95.592,95.592,0,0,1-19.146-1.933,94.473,94.473,0,0,1-17.832-5.533,95.225,95.225,0,0,1-16.135-8.758,96.326,96.326,0,0,1-14.061-11.6,95.965,95.965,0,0,1-11.6-14.064,94.933,94.933,0,0,1-8.758-16.136,93.855,93.855,0,0,1-5.531-17.832A95.5,95.5,0,0,1-18500-3267h12a83.5,83.5,0,0,0,1.688,16.726,82.59,82.59,0,0,0,4.836,15.583,82.776,82.776,0,0,0,7.652,14.1,83.662,83.662,0,0,0,10.133,12.284,83.423,83.423,0,0,0,12.285,10.138,82.78,82.78,0,0,0,14.1,7.652,82.853,82.853,0,0,0,15.584,4.837A83.478,83.478,0,0,0-18405-3184a83.57,83.57,0,0,0,16.727-1.687,82.853,82.853,0,0,0,15.584-4.837,83.526,83.526,0,0,0,14.1-7.652,83.627,83.627,0,0,0,12.285-10.138,83.662,83.662,0,0,0,10.133-12.284,83.04,83.04,0,0,0,7.652-14.1,82.759,82.759,0,0,0,4.836-15.583A83.5,83.5,0,0,0-18322-3267h12a95.473,95.473,0,0,1-1.934,19.147,93.977,93.977,0,0,1-5.531,17.832,94.91,94.91,0,0,1-8.76,16.136,95.768,95.768,0,0,1-11.6,14.064,95.79,95.79,0,0,1-14.059,11.6,94.751,94.751,0,0,1-16.137,8.758,94.243,94.243,0,0,1-17.83,5.533A95.611,95.611,0,0,1-18405-3172Z" transform="translate(18634 4033)" fill="#2c77ff"/>
      <path id="Subtraction_44" data-name="Subtraction 44" d="M-18320-3279h-12.006a84.109,84.109,0,0,0-1.68-16.731,83.33,83.33,0,0,0-4.834-15.578,83.885,83.885,0,0,0-7.652-14.1,84.041,84.041,0,0,0-10.143-12.284,83.459,83.459,0,0,0-12.283-10.133,82.688,82.688,0,0,0-14.1-7.648,82.585,82.585,0,0,0-15.578-4.841A83.81,83.81,0,0,0-18415-3362V-3374a96.2,96.2,0,0,1,19.143,1.933,94.289,94.289,0,0,1,17.832,5.534,95.316,95.316,0,0,1,16.141,8.758,96.062,96.062,0,0,1,14.059,11.6,95.526,95.526,0,0,1,11.6,14.064,95.632,95.632,0,0,1,8.754,16.131,93.8,93.8,0,0,1,5.535,17.832A95.643,95.643,0,0,1-18320-3279h0Z" transform="translate(18644 4044.997)" fill="#003696"/>
      <text id="Sales_Rates-2" data-name="Sales Rates" transform="translate(186 781)" fill="#63799b" font-size="16" font-family="NunitoSans-Regular, Nunito Sans"><tspan x="0" y="16">Sales Rates</tspan></text>
      <text id="_52_" data-name="52%" transform="translate(175 725)" fill="#63799b" font-size="48" font-family="NunitoSans-Bold, Nunito Sans" font-weight="700" letter-spacing="-0.01em"><tspan x="0" y="49">52%</tspan></text>
    </g>
  </g>
</svg>
