<svg xmlns="http://www.w3.org/2000/svg" width="1970.577" height="1197.257" viewBox="0 0 1970.577 1197.257">
  <g id="top-bg-layer" transform="translate(-118 179.257)">
    <path id="Path_2" data-name="Path 2" d="M42.6,180.78s84.5-113.7,288.192-64.659,242.555,95.112,216.151,219.587-150.88,128.248,0,282.9,482.815,286.672,75.44,433.779-697.819,0-697.819-226.32S42.6,180.78,42.6,180.78Z" transform="matrix(-0.995, 0.105, -0.105, -0.995, 2024.405, 934.02)" fill="#f8a51b" opacity="0.101"/>
    <circle id="Ellipse_1" data-name="Ellipse 1" cx="43.5" cy="43.5" r="43.5" transform="translate(118 807)" fill="#f8a51b" opacity="0.22"/>
    <circle id="Ellipse_2" data-name="Ellipse 2" cx="43.5" cy="43.5" r="43.5" transform="translate(665 725)" fill="#f8a51b" opacity="0.06"/>
    <g id="Ellipse_3" data-name="Ellipse 3" transform="translate(476 880)" fill="#f8a51b" stroke="#f8a51b" stroke-width="9" opacity="0.22">
      <circle cx="19.5" cy="19.5" r="19.5" stroke="none"/>
      <circle cx="19.5" cy="19.5" r="15" fill="none"/>
    </g>
    <g id="Ellipse_4" data-name="Ellipse 4" transform="translate(1023 738)" fill="#f8a51b" stroke="#f8a51b" stroke-width="9" opacity="0.22">
      <circle cx="19.5" cy="19.5" r="19.5" stroke="none"/>
      <circle cx="19.5" cy="19.5" r="15" fill="none"/>
    </g>
    <g id="Ellipse_5" data-name="Ellipse 5" transform="translate(1213 979)" fill="#f8a51b" stroke="#f8a51b" stroke-width="9" opacity="0.22">
      <circle cx="19.5" cy="19.5" r="19.5" stroke="none"/>
      <circle cx="19.5" cy="19.5" r="15" fill="none"/>
    </g>
    <g id="Ellipse_7" data-name="Ellipse 7" transform="translate(1014 385)" fill="#f8a51b" stroke="#f8a51b" stroke-width="9" opacity="0.22">
      <circle cx="19.5" cy="19.5" r="19.5" stroke="none"/>
      <circle cx="19.5" cy="19.5" r="15" fill="none"/>
    </g>
  </g>
</svg>
